<svg width="48" height="48" viewBox="0 0 48 48" fill="none" xmlns="http://www.w3.org/2000/svg">
<path fill-rule="evenodd" clip-rule="evenodd" d="M6.65001 32.35V30.65H17.35V41.35H15.65V35.121V33.5518L14.5404 34.6614L5.12101 44.0808L3.91925 42.879L13.3386 33.4596L14.4483 32.35H12.879H6.65001Z" fill="white"/>
<path fill-rule="evenodd" clip-rule="evenodd" d="M10.3392 4.33917C10.7798 3.89854 11.3772 3.65069 12.0004 3.64999H26.9999H27C27.2254 3.65008 27.4415 3.73966 27.6008 3.89904L27.6009 3.89911L38.1009 14.3991L38.1009 14.3992C38.2603 14.5585 38.3499 14.7746 38.35 15V15.0001V23.35H36.65V18V17.35H36H27.0006C26.3774 17.3494 25.7799 17.1015 25.3392 16.6608C24.8985 16.2201 24.6506 15.6226 24.65 14.9993V5.99999V5.34999H24H12H11.35V5.99999V23.35H9.64999V6.00036C9.65069 5.37722 9.89854 4.7798 10.3392 4.33917ZM27.4596 6.16137L26.35 5.05176V6.62099V15V15.65H27H35.379H36.9482L35.8386 14.5404L27.4596 6.16137Z" fill="white"/>
</svg>
