<svg width="48" height="48" viewBox="0 0 48 48" fill="none" xmlns="http://www.w3.org/2000/svg">
<path fill-rule="evenodd" clip-rule="evenodd" d="M17.9334 5.63041C18.6393 4.99908 19.553 4.65003 20.5 4.64999H20.5H27.5C28.447 4.65002 29.3607 4.99907 30.0666 5.63041C30.7724 6.26175 31.2208 7.13109 31.326 8.07222L31.3906 8.64999H31.972H35.5C36.0056 8.64999 36.5062 8.74958 36.9733 8.94306C37.4404 9.13654 37.8648 9.42013 38.2224 9.77763C38.5799 10.1351 38.8635 10.5596 39.0569 11.0267C39.2504 11.4938 39.35 11.9944 39.35 12.5V39.5C39.35 40.0056 39.2504 40.5062 39.0569 40.9733C38.8635 41.4404 38.5799 41.8648 38.2224 42.2224C37.8648 42.5799 37.4404 42.8635 36.9733 43.0569C36.5062 43.2504 36.0056 43.35 35.5 43.35H12.5C11.4789 43.35 10.4996 42.9444 9.77763 42.2224C9.05562 41.5003 8.64999 40.5211 8.64999 39.5V12.5C8.64999 11.4789 9.05562 10.4996 9.77763 9.77763C10.4996 9.05562 11.4789 8.64999 12.5 8.64999H16.028H16.6094L16.674 8.07222C16.7792 7.13109 17.2276 6.26175 17.9334 5.63041ZM20.5 6.34999C19.9298 6.34999 19.3829 6.57651 18.9797 6.97971C18.5765 7.38292 18.35 7.92978 18.35 8.49999C18.35 9.07021 18.5765 9.61707 18.9797 10.0203C19.3829 10.4235 19.9298 10.65 20.5 10.65H27.5C28.0702 10.65 28.6171 10.4235 29.0203 10.0203C29.4235 9.61707 29.65 9.07021 29.65 8.49999C29.65 7.92978 29.4235 7.38292 29.0203 6.97971C28.6171 6.57651 28.0702 6.34999 27.5 6.34999H20.5ZM12.5 10.35C11.9298 10.35 11.3829 10.5765 10.9797 10.9797C10.5765 11.3829 10.35 11.9298 10.35 12.5V39.5C10.35 40.0702 10.5765 40.6171 10.9797 41.0203C11.3829 41.4235 11.9298 41.65 12.5 41.65H35.5C36.0702 41.65 36.6171 41.4235 37.0203 41.0203C37.4235 40.6171 37.65 40.0702 37.65 39.5V12.5C37.65 11.9298 37.4235 11.3829 37.0203 10.9797C36.6171 10.5765 36.0702 10.35 35.5 10.35H31.242H30.8951L30.702 10.6382C30.0094 11.672 28.8338 12.35 27.5 12.35H20.5C19.1662 12.35 17.9906 11.672 17.298 10.6382L17.1049 10.35H16.758H12.5ZM32.8993 17.8999C33.0587 17.7407 33.2747 17.6513 33.5 17.6513C33.7251 17.6513 33.941 17.7406 34.1004 17.8996C34.2594 18.059 34.3487 18.2749 34.3487 18.5C34.3487 18.7252 34.2593 18.9413 34.1001 19.1007L30.1007 23.1001C29.9413 23.2593 29.7252 23.3487 29.5 23.3487C29.2747 23.3487 29.0587 23.2593 28.8993 23.1001L26.8996 21.1004L26.8915 21.0923L26.8831 21.0844C26.7996 21.0066 26.7326 20.9128 26.6862 20.8085C26.6397 20.7043 26.6147 20.5917 26.6127 20.4776C26.6107 20.3634 26.6317 20.2501 26.6744 20.1442C26.7172 20.0384 26.7808 19.9423 26.8615 19.8615C26.9423 19.7808 27.0384 19.7172 27.1442 19.6744C27.2501 19.6317 27.3634 19.6107 27.4776 19.6127C27.5917 19.6147 27.7043 19.6397 27.8085 19.6862C27.9128 19.7326 28.0066 19.7996 28.0844 19.8831L28.0923 19.8915L28.1004 19.8996L29.0404 20.8396L29.5 21.2992L29.9596 20.8396L32.8993 17.8999ZM14.899 19.899C15.0584 19.7395 15.2746 19.65 15.5 19.65H22.5C22.7254 19.65 22.9416 19.7395 23.101 19.899C23.2604 20.0584 23.35 20.2746 23.35 20.5C23.35 20.7254 23.2604 20.9416 23.101 21.101C22.9416 21.2604 22.7254 21.35 22.5 21.35H15.5C15.2746 21.35 15.0584 21.2604 14.899 21.101C14.7395 20.9416 14.65 20.7254 14.65 20.5C14.65 20.2746 14.7395 20.0584 14.899 19.899ZM33.5224 28.6127C33.6365 28.6107 33.7499 28.6317 33.8558 28.6744C33.9616 28.7172 34.0577 28.7808 34.1384 28.8615C34.2192 28.9423 34.2828 29.0384 34.3255 29.1442C34.3683 29.2501 34.3893 29.3634 34.3873 29.4776C34.3853 29.5917 34.3603 29.7043 34.3138 29.8085C34.2674 29.9128 34.2004 30.0066 34.1169 30.0844L34.1085 30.0923L34.1004 30.1004L30.1007 34.1001C29.9413 34.2593 29.7252 34.3487 29.5 34.3487C29.2747 34.3487 29.0587 34.2593 28.8993 34.1001L26.8996 32.1004L26.8915 32.0923L26.8831 32.0844C26.7996 32.0066 26.7326 31.9128 26.6862 31.8085C26.6397 31.7043 26.6147 31.5917 26.6127 31.4776C26.6107 31.3634 26.6317 31.2501 26.6744 31.1442C26.7172 31.0384 26.7808 30.9423 26.8615 30.8615C26.9423 30.7808 27.0384 30.7172 27.1442 30.6744C27.2501 30.6317 27.3634 30.6107 27.4776 30.6127C27.5917 30.6147 27.7043 30.6397 27.8085 30.6862C27.9128 30.7326 28.0066 30.7996 28.0844 30.8831L28.0923 30.8915L28.1004 30.8996L29.0404 31.8396L29.5 32.2992L29.9596 31.8396L32.8996 28.8996L32.9077 28.8915L32.9155 28.8831C32.9934 28.7996 33.0872 28.7326 33.1915 28.6862C33.2957 28.6397 33.4083 28.6147 33.5224 28.6127ZM14.899 30.899C15.0584 30.7395 15.2746 30.65 15.5 30.65H22.5C22.7254 30.65 22.9416 30.7395 23.101 30.899C23.2604 31.0584 23.35 31.2746 23.35 31.5C23.35 31.7254 23.2604 31.9416 23.101 32.101C22.9416 32.2604 22.7254 32.35 22.5 32.35H15.5C15.2746 32.35 15.0584 32.2604 14.899 32.101C14.7395 31.9416 14.65 31.7254 14.65 31.5C14.65 31.2746 14.7395 31.0584 14.899 30.899Z" fill="#023470" fill-opacity="0.7"/>
</svg>
