<svg width="10" height="7" viewBox="0 0 10 7" fill="none" xmlns="http://www.w3.org/2000/svg">
<path d="M0.880812 0.306662C0.845753 0.374064 0.829712 0.449741 0.83441 0.525571C0.839108 0.6014 0.864367 0.674519 0.907478 0.737078L4.65748 6.15375C4.69582 6.2091 4.74701 6.25433 4.80666 6.28557C4.86631 6.31681 4.93264 6.33313 4.99998 6.33313C5.06731 6.33313 5.13364 6.31681 5.19329 6.28557C5.25294 6.25433 5.30413 6.2091 5.34248 6.15375L9.09248 0.737078C9.13573 0.674568 9.16106 0.601415 9.16572 0.525542C9.17038 0.449669 9.1542 0.373967 9.11892 0.306632C9.08364 0.239298 9.03062 0.182896 8.96559 0.143535C8.90055 0.104174 8.82599 0.0833539 8.74998 0.0833283L1.24998 0.0833283C1.17392 0.0833157 1.09931 0.104121 1.03424 0.14349C0.96916 0.182858 0.916102 0.239287 0.880812 0.306662Z" fill="#707C97" fill-opacity="0.3"/>
</svg>
